<?xml version="1.0" encoding="utf-8"?>
<!-- Generator: Adobe Illustrator 24.3.0, SVG Export Plug-In . SVG Version: 6.00 Build 0)  -->
<svg version="1.1" id="Layer_1" xmlns="http://www.w3.org/2000/svg" xmlns:xlink="http://www.w3.org/1999/xlink" x="0px" y="0px"
	 viewBox="0 0 1024 1024" style="enable-background:new 0 0 1024 1024;" xml:space="preserve">
<style type="text/css">
	.st0{fill:#4B4358;stroke:#4B4358;stroke-width:14;stroke-miterlimit:10;}
	.st1{fill:#4B4358;}
	.st2{fill:#F99169;}
	.st3{fill:#D84827;}
	.st4{fill:#F8D9D3;}
	.st5{fill:#FFFFFF;}
</style>
<path class="st0" d="M496.5,142c147.6-3.9,273.5,102.4,287.9,251.9c2.2,22.5,1.2,45.6,1.2,68.2l0,92.7c32.3-6.9,41.4-28.7,63.3-34.2
	c22.6-5.7,45.3,9.3,50.8,31.6c11.2,45.2-39.1,85.5-78.9,94.6c-10.1,2.3-20.5,2.9-30.5,5.5l-1,0.2c2.7,32.6,15.9,75.7,26.1,106.3
	c2.1,6.2,4.2,12.4,5.4,18.8c14.5,76.9-76.8,125.6-131.6,76.1c-12.8-11.6-16.9-20.1-33.5-28.4c-22.5-11.3-50.7-8.3-69.5,8.4
	c-27.2,24.1-21.1,26.5-59.5,39.2c-79.8,4.3-73.9-46.2-121.5-52.2c-45.6-5.8-50.3,15.1-77.5,36.1c-35.2,27.2-84.3,18.4-110.6-16.5
	c-18.9-25-17.4-49.2-8.7-76.8c11.5-36.6,22-72.8,27.2-111c-38.5-2.3-79.3-15.3-100.6-49.9c-36.7-59.5,16.7-105.4,58.6-72.5
	c21,16.5,15.9,17.6,44.4,24.8l0-93.7c0-22.1-0.5-44.4,1.6-66.4C252.8,254.9,358.6,154.8,496.5,142z M520.1,850.5
	c30.9-5.7,33.8-20.9,54.5-36.4c30.4-22.9,71.6-22.9,102.8-1.2c10.4,7.2,15.4,14.5,24,22.7c40.1,38.3,108.1,2.1,97.8-53.3
	c-1.3-6.9-4.1-13.6-6.4-20.3c-26.6-76.5-29.4-130.7-29.3-209.3l0-91.4c0-22.9,1.4-48.8-1.5-71.4
	c-16.4-126.2-126.7-233.1-256.6-225.5c-127.7,2.1-231.5,105.4-244.1,230.7c-2.2,22-1.4,44.5-1.4,66.6l0,113.1
	c0,75.9-2.9,110.3-26.8,184.7c-3.7,11.5-8.9,23.1-8.6,35.5c0.7,30.3,26.1,57.7,57.3,56.5c29.7-1.1,35.6-16.5,53-32.3
	c29.2-26.5,86.3-29.7,115.9-2.4c21.1,19.4,31.4,35.3,64.7,34L520.1,850.5z M223.5,630H238l0-35.3c0-6-0.6-12.2,0-18.1
	c-17.4-5-33.9-6.8-47.5-19.8c-10-9.5-14.1-16.2-29.5-15.3c-16.4,4.5-19.3,17.6-14.7,32.8C157,610.3,189.9,623.6,223.5,630z
	 M786.4,630c7.5-0.4,14.8-1.4,22.1-2.7c24.5-5.9,48.2-16,61.8-38.4c11.8-19.4,13.9-50.3-16.9-47.3c-24.1,10.6-26.2,29.9-68,35.1
	C785.5,594.4,786.7,612.3,786.4,630z"/>
<path class="st1" d="M434,487.3c7.6-0.6,15.5,0,23.1,0l102.2,0c31.1-0.1,56.6-6.1,51.9,37.7c-3.1,28.8-17.6,50.3-39.8,68.1
	c-61.8,43-151.5,7.9-158.7-68C411.1,508.4,413.7,488.8,434,487.3z"/>
<path class="st2" d="M434,508.9h156c0.9,25.2-8.1,46.7-26.9,63.9l-2.6-5c-12.7-24.2-39.2-35.5-65.6-27.2
	c-17.4,5.5-25.8,16.9-33.9,32.3C441.3,557.5,433.4,533.1,434,508.9z"/>
<path class="st3" d="M509.4,559.7c17.8-1.4,29.9,8.1,34.5,25c-8.7,3.7-18.9,5.5-28.3,5.8c-12.3,0.3-23.9-1.2-35.3-5.8
	C484.7,570.3,493.7,561.3,509.4,559.7z"/>
<path class="st1" d="M613,333.5c73.3-2,82.6,98.6,10.1,108.8c-26.1,5-55.2-18.9-59.4-45C558.4,363.6,580.5,338.6,613,333.5z"/>
<path class="st1" d="M401.7,333.5c73.3-2,82.6,98.6,10.1,108.8c-26.1,5-55.2-18.9-59.4-45C347.1,363.6,369.2,338.6,401.7,333.5z"/>
<path class="st1" d="M400.8,333.5c67.3-7.1,88.7,93.9,11.7,108.8C343.4,448.3,325.4,346.8,400.8,333.5z M411,420.2
	c42.1-8.7,34.5-69-8.6-64.5C356.9,365.5,370.9,424.9,411,420.2z"/>
<path class="st4" d="M671.4,454.5c11.8-0.4,22.8-0.4,33.8,4.6c37.2,17,18.4,44.8-13.7,54.2c-12.9,1.7-27.8-0.1-39.1-6.7
	C620.7,488,641,460.3,671.4,454.5z"/>
<path class="st4" d="M333.3,454.5c64-3.6,71.4,49.6,20.2,58.8C299.4,519.8,276.1,469.2,333.3,454.5z"/>
<ellipse class="st5" cx="638" cy="372.9" rx="17.5" ry="13.4"/>
<ellipse class="st5" cx="424.2" cy="372.9" rx="17.5" ry="13.4"/>
</svg>
